<?xml version="1.0" encoding="UTF-8" standalone="no"?><svg xmlns="http://www.w3.org/2000/svg" xmlns:xlink="http://www.w3.org/1999/xlink" contentScriptType="application/ecmascript" contentStyleType="text/css" height="933px" preserveAspectRatio="none" style="width:881px;height:933px;" version="1.1" viewBox="0 0 881 933" width="881px" zoomAndPan="magnify"><defs><filter height="300%" id="f1sbzpjlgl4f1t" width="300%" x="-1" y="-1"><feGaussianBlur result="blurOut" stdDeviation="2.0"/><feColorMatrix in="blurOut" result="blurOut2" type="matrix" values="0 0 0 0 0 0 0 0 0 0 0 0 0 0 0 0 0 0 .4 0"/><feOffset dx="4.0" dy="4.0" in="blurOut2" result="blurOut3"/><feBlend in="SourceGraphic" in2="blurOut3" mode="normal"/></filter></defs><g><!--cluster embclib--><polygon fill="#FFFFFF" filter="url(#f1sbzpjlgl4f1t)" points="22,24,83,24,90,47.6094,859,47.6094,859,921,22,921,22,24" style="stroke: #000000; stroke-width: 1.5;"/><line style="stroke: #000000; stroke-width: 1.5;" x1="22" x2="90" y1="47.6094" y2="47.6094"/><text fill="#000000" font-family="sans-serif" font-size="14" font-weight="bold" lengthAdjust="spacingAndGlyphs" textLength="55" x="26" y="40.5332">embclib</text><!--cluster stdctypes--><polygon fill="#FFFFFF" filter="url(#f1sbzpjlgl4f1t)" points="312,68,386,68,393,91.6094,835,91.6094,835,897,312,897,312,68" style="stroke: #000000; stroke-width: 1.5;"/><line style="stroke: #000000; stroke-width: 1.5;" x1="312" x2="393" y1="91.6094" y2="91.6094"/><text fill="#000000" font-family="sans-serif" font-size="14" font-weight="bold" lengthAdjust="spacingAndGlyphs" textLength="68" x="316" y="84.5332">stdctypes</text><!--class utils--><rect fill="#FEFECE" filter="url(#f1sbzpjlgl4f1t)" height="231.8672" id="utils" style="stroke: #A80036; stroke-width: 1.5;" width="258" x="38" y="133.5"/><ellipse cx="151.25" cy="149.5" fill="#ADD1B2" rx="11" ry="11" style="stroke: #A80036; stroke-width: 1.0;"/><path d="M154.0156,145.375 Q154.1719,145.1563 154.3594,145.0469 Q154.5469,144.9375 154.7656,144.9375 Q155.1406,144.9375 155.375,145.1953 Q155.6094,145.4531 155.6094,146.0625 L155.6094,147.5156 Q155.6094,148.125 155.375,148.3906 Q155.1406,148.6563 154.7656,148.6563 Q154.4219,148.6563 154.2188,148.4531 Q154.0156,148.2656 153.9063,147.75 Q153.8594,147.3906 153.6719,147.2031 Q153.3438,146.8281 152.7344,146.6094 Q152.125,146.3906 151.5,146.3906 Q150.7344,146.3906 150.1016,146.7188 Q149.4688,147.0469 148.9766,147.7969 Q148.4844,148.5469 148.4844,149.5781 L148.4844,150.6719 Q148.4844,151.9063 149.375,152.7266 Q150.2656,153.5469 151.8594,153.5469 Q152.7969,153.5469 153.4531,153.2969 Q153.8438,153.1406 154.2656,152.7031 Q154.5313,152.4375 154.6797,152.3594 Q154.8281,152.2813 155.0313,152.2813 Q155.3594,152.2813 155.6172,152.5391 Q155.875,152.7969 155.875,153.1406 Q155.875,153.4844 155.5313,153.8906 Q155.0313,154.4688 154.2344,154.7969 Q153.1563,155.25 151.8594,155.25 Q150.3438,155.25 149.1406,154.625 Q148.1563,154.125 147.4688,153.0547 Q146.7813,151.9844 146.7813,150.7031 L146.7813,149.5469 Q146.7813,148.2188 147.3984,147.0703 Q148.0156,145.9219 149.1094,145.3047 Q150.2031,144.6875 151.4375,144.6875 Q152.1719,144.6875 152.8203,144.8516 Q153.4688,145.0156 154.0156,145.375 Z "/><text fill="#000000" font-family="sans-serif" font-size="12" lengthAdjust="spacingAndGlyphs" textLength="23" x="171.75" y="154.4102">utils</text><line style="stroke: #A80036; stroke-width: 1.5;" x1="39" x2="295" y1="165.5" y2="165.5"/><ellipse cx="49" cy="194.3359" fill="#84BE84" rx="3" ry="3" style="stroke: #038048; stroke-width: 1.0;"/><text fill="#000000" font-family="sans-serif" font-size="11" lengthAdjust="spacingAndGlyphs" textLength="42" x="58" y="198.7549">Abs(val)</text><ellipse cx="49" cy="208.1719" fill="#84BE84" rx="3" ry="3" style="stroke: #038048; stroke-width: 1.0;"/><text fill="#000000" font-family="sans-serif" font-size="11" lengthAdjust="spacingAndGlyphs" textLength="74" x="58" y="212.5908">Max(val1, val2)</text><ellipse cx="49" cy="222.0078" fill="#84BE84" rx="3" ry="3" style="stroke: #038048; stroke-width: 1.0;"/><text fill="#000000" font-family="sans-serif" font-size="11" lengthAdjust="spacingAndGlyphs" textLength="70" x="58" y="226.4268">Min(val1, val2)</text><ellipse cx="49" cy="235.8438" fill="#84BE84" rx="3" ry="3" style="stroke: #038048; stroke-width: 1.0;"/><text fill="#000000" font-family="sans-serif" font-size="11" lengthAdjust="spacingAndGlyphs" textLength="50" x="58" y="240.2627">Pow2(val)</text><ellipse cx="49" cy="249.6797" fill="#84BE84" rx="3" ry="3" style="stroke: #038048; stroke-width: 1.0;"/><text fill="#000000" font-family="sans-serif" font-size="11" lengthAdjust="spacingAndGlyphs" textLength="83" x="58" y="254.0986">Swap(val1, val2)</text><ellipse cx="49" cy="263.5156" fill="#84BE84" rx="3" ry="3" style="stroke: #038048; stroke-width: 1.0;"/><text fill="#000000" font-family="sans-serif" font-size="11" lengthAdjust="spacingAndGlyphs" textLength="91" x="58" y="267.9346">Limit(val, min, max)</text><line style="stroke: #A80036; stroke-width: 1.0; stroke-dasharray: 1.0,2.0;" x1="39" x2="128" y1="180.418" y2="180.418"/><text fill="#000000" font-family="sans-serif" font-size="11" lengthAdjust="spacingAndGlyphs" textLength="78" x="128" y="184.4189">Macro functions</text><line style="stroke: #A80036; stroke-width: 1.0; stroke-dasharray: 1.0,2.0;" x1="206" x2="295" y1="180.418" y2="180.418"/><line style="stroke: #A80036; stroke-width: 1.0;" x1="39" x2="295" y1="274.3516" y2="274.3516"/><ellipse cx="49" cy="285.3516" fill="#84BE84" rx="3" ry="3" style="stroke: #038048; stroke-width: 1.0;"/><text fill="#000000" font-family="sans-serif" font-size="11" lengthAdjust="spacingAndGlyphs" textLength="232" x="58" y="289.7705">UTILS_Rand(min : int16_t, max : int16_t) : int16_t</text><ellipse cx="49" cy="299.1875" fill="#84BE84" rx="3" ry="3" style="stroke: #038048; stroke-width: 1.0;"/><text fill="#000000" font-family="sans-serif" font-size="11" lengthAdjust="spacingAndGlyphs" textLength="212" x="58" y="303.6064">UTILS_RandSeed(seed_i16 : uint16_t) : void</text><ellipse cx="49" cy="313.0234" fill="#84BE84" rx="3" ry="3" style="stroke: #038048; stroke-width: 1.0;"/><text fill="#000000" font-family="sans-serif" font-size="11" lengthAdjust="spacingAndGlyphs" textLength="149" x="58" y="317.4424">UTILS_Scale(in_value : int16_t,</text><text fill="#000000" font-family="sans-serif" font-size="11" lengthAdjust="spacingAndGlyphs" textLength="155" x="58" y="331.2783">in_min : int16_t, in_max : int16_t,</text><text fill="#000000" font-family="sans-serif" font-size="11" lengthAdjust="spacingAndGlyphs" textLength="211" x="58" y="345.1143">out_min : int16_t, out_max : int16_t) : int16_t</text><text fill="#000000" font-family="sans-serif" font-size="11" lengthAdjust="spacingAndGlyphs" textLength="0" x="61" y="358.9502"/><!--class regctrl--><rect fill="#FEFECE" filter="url(#f1sbzpjlgl4f1t)" height="360.3906" id="regctrl" style="stroke: #A80036; stroke-width: 1.5;" width="210" x="62" y="488"/><ellipse cx="145.75" cy="504" fill="#ADD1B2" rx="11" ry="11" style="stroke: #A80036; stroke-width: 1.0;"/><path d="M148.5156,499.875 Q148.6719,499.6563 148.8594,499.5469 Q149.0469,499.4375 149.2656,499.4375 Q149.6406,499.4375 149.875,499.6953 Q150.1094,499.9531 150.1094,500.5625 L150.1094,502.0156 Q150.1094,502.625 149.875,502.8906 Q149.6406,503.1563 149.2656,503.1563 Q148.9219,503.1563 148.7188,502.9531 Q148.5156,502.7656 148.4063,502.25 Q148.3594,501.8906 148.1719,501.7031 Q147.8438,501.3281 147.2344,501.1094 Q146.625,500.8906 146,500.8906 Q145.2344,500.8906 144.6016,501.2188 Q143.9688,501.5469 143.4766,502.2969 Q142.9844,503.0469 142.9844,504.0781 L142.9844,505.1719 Q142.9844,506.4063 143.875,507.2266 Q144.7656,508.0469 146.3594,508.0469 Q147.2969,508.0469 147.9531,507.7969 Q148.3438,507.6406 148.7656,507.2031 Q149.0313,506.9375 149.1797,506.8594 Q149.3281,506.7813 149.5313,506.7813 Q149.8594,506.7813 150.1172,507.0391 Q150.375,507.2969 150.375,507.6406 Q150.375,507.9844 150.0313,508.3906 Q149.5313,508.9688 148.7344,509.2969 Q147.6563,509.75 146.3594,509.75 Q144.8438,509.75 143.6406,509.125 Q142.6563,508.625 141.9688,507.5547 Q141.2813,506.4844 141.2813,505.2031 L141.2813,504.0469 Q141.2813,502.7188 141.8984,501.5703 Q142.5156,500.4219 143.6094,499.8047 Q144.7031,499.1875 145.9375,499.1875 Q146.6719,499.1875 147.3203,499.3516 Q147.9688,499.5156 148.5156,499.875 Z "/><text fill="#000000" font-family="sans-serif" font-size="12" lengthAdjust="spacingAndGlyphs" textLength="34" x="166.25" y="508.9102">regctrl</text><line style="stroke: #A80036; stroke-width: 1.5;" x1="63" x2="271" y1="520" y2="520"/><ellipse cx="73" cy="548.8359" fill="#84BE84" rx="3" ry="3" style="stroke: #038048; stroke-width: 1.0;"/><text fill="#000000" font-family="sans-serif" font-size="11" lengthAdjust="spacingAndGlyphs" textLength="83" x="82" y="553.2549">BIT_Mask(bitpos)</text><ellipse cx="73" cy="562.6719" fill="#84BE84" rx="3" ry="3" style="stroke: #038048; stroke-width: 1.0;"/><text fill="#000000" font-family="sans-serif" font-size="11" lengthAdjust="spacingAndGlyphs" textLength="95" x="82" y="567.0908">BIT_MaskFill(bitpos)</text><line style="stroke: #A80036; stroke-width: 1.0; stroke-dasharray: 1.0,2.0;" x1="63" x2="147" y1="534.918" y2="534.918"/><text fill="#000000" font-family="sans-serif" font-size="11" lengthAdjust="spacingAndGlyphs" textLength="40" x="147" y="538.9189">Bit mask</text><line style="stroke: #A80036; stroke-width: 1.0; stroke-dasharray: 1.0,2.0;" x1="187" x2="271" y1="534.918" y2="534.918"/><ellipse cx="73" cy="594.3438" fill="#84BE84" rx="3" ry="3" style="stroke: #038048; stroke-width: 1.0;"/><text fill="#000000" font-family="sans-serif" font-size="11" lengthAdjust="spacingAndGlyphs" textLength="96" x="82" y="598.7627">BIT_Set(reg, bitpos)</text><ellipse cx="73" cy="608.1797" fill="#84BE84" rx="3" ry="3" style="stroke: #038048; stroke-width: 1.0;"/><text fill="#000000" font-family="sans-serif" font-size="11" lengthAdjust="spacingAndGlyphs" textLength="105" x="82" y="612.5986">BIT_Clear(reg, bitpos)</text><ellipse cx="73" cy="622.0156" fill="#84BE84" rx="3" ry="3" style="stroke: #038048; stroke-width: 1.0;"/><text fill="#000000" font-family="sans-serif" font-size="11" lengthAdjust="spacingAndGlyphs" textLength="105" x="82" y="626.4346">BIT_Read(reg, bitpos)</text><ellipse cx="73" cy="635.8516" fill="#84BE84" rx="3" ry="3" style="stroke: #038048; stroke-width: 1.0;"/><text fill="#000000" font-family="sans-serif" font-size="11" lengthAdjust="spacingAndGlyphs" textLength="112" x="82" y="640.2705">BIT_Toggle(reg, bitpos)</text><line style="stroke: #A80036; stroke-width: 1.0; stroke-dasharray: 1.0,2.0;" x1="63" x2="130" y1="580.4258" y2="580.4258"/><text fill="#000000" font-family="sans-serif" font-size="11" lengthAdjust="spacingAndGlyphs" textLength="74" x="130" y="584.4268">Bit manipulation</text><line style="stroke: #A80036; stroke-width: 1.0; stroke-dasharray: 1.0,2.0;" x1="204" x2="271" y1="580.4258" y2="580.4258"/><ellipse cx="73" cy="667.5234" fill="#84BE84" rx="3" ry="3" style="stroke: #038048; stroke-width: 1.0;"/><text fill="#000000" font-family="sans-serif" font-size="11" lengthAdjust="spacingAndGlyphs" textLength="104" x="82" y="671.9424">BIT_IsSet(reg, bitpos)</text><ellipse cx="73" cy="681.3594" fill="#84BE84" rx="3" ry="3" style="stroke: #038048; stroke-width: 1.0;"/><text fill="#000000" font-family="sans-serif" font-size="11" lengthAdjust="spacingAndGlyphs" textLength="113" x="82" y="685.7783">BIT_IsClear(reg, bitpos)</text><ellipse cx="73" cy="695.1953" fill="#84BE84" rx="3" ry="3" style="stroke: #038048; stroke-width: 1.0;"/><text fill="#000000" font-family="sans-serif" font-size="11" lengthAdjust="spacingAndGlyphs" textLength="123" x="82" y="699.6143">BIT_IsAllSet(reg, bitmask)</text><ellipse cx="73" cy="709.0313" fill="#84BE84" rx="3" ry="3" style="stroke: #038048; stroke-width: 1.0;"/><text fill="#000000" font-family="sans-serif" font-size="11" lengthAdjust="spacingAndGlyphs" textLength="131" x="82" y="713.4502">BIT_IsAnySet(reg, bitmask)</text><line style="stroke: #A80036; stroke-width: 1.0; stroke-dasharray: 1.0,2.0;" x1="63" x2="145" y1="653.6055" y2="653.6055"/><text fill="#000000" font-family="sans-serif" font-size="11" lengthAdjust="spacingAndGlyphs" textLength="44" x="145" y="657.6064">Bit check</text><line style="stroke: #A80036; stroke-width: 1.0; stroke-dasharray: 1.0,2.0;" x1="189" x2="271" y1="653.6055" y2="653.6055"/><ellipse cx="73" cy="740.7031" fill="#84BE84" rx="3" ry="3" style="stroke: #038048; stroke-width: 1.0;"/><text fill="#000000" font-family="sans-serif" font-size="11" lengthAdjust="spacingAndGlyphs" textLength="76" x="82" y="745.1221">REG_Clear(reg)</text><ellipse cx="73" cy="754.5391" fill="#84BE84" rx="3" ry="3" style="stroke: #038048; stroke-width: 1.0;"/><text fill="#000000" font-family="sans-serif" font-size="11" lengthAdjust="spacingAndGlyphs" textLength="96" x="82" y="758.958">REG_Write(reg, val)</text><ellipse cx="73" cy="768.375" fill="#84BE84" rx="3" ry="3" style="stroke: #038048; stroke-width: 1.0;"/><text fill="#000000" font-family="sans-serif" font-size="11" lengthAdjust="spacingAndGlyphs" textLength="76" x="82" y="772.7939">REG_Read(reg)</text><ellipse cx="73" cy="782.2109" fill="#84BE84" rx="3" ry="3" style="stroke: #038048; stroke-width: 1.0;"/><text fill="#000000" font-family="sans-serif" font-size="11" lengthAdjust="spacingAndGlyphs" textLength="184" x="82" y="786.6299">REG_Modify(reg, setmask, clearmask)</text><ellipse cx="73" cy="796.0469" fill="#84BE84" rx="3" ry="3" style="stroke: #038048; stroke-width: 1.0;"/><text fill="#000000" font-family="sans-serif" font-size="11" lengthAdjust="spacingAndGlyphs" textLength="122" x="82" y="800.4658">REG_Cut(reg, bitpos, len)</text><ellipse cx="73" cy="809.8828" fill="#84BE84" rx="3" ry="3" style="stroke: #038048; stroke-width: 1.0;"/><text fill="#000000" font-family="sans-serif" font-size="11" lengthAdjust="spacingAndGlyphs" textLength="106" x="82" y="814.3018">REG_Shift(val, bitpos)</text><ellipse cx="73" cy="823.7188" fill="#84BE84" rx="3" ry="3" style="stroke: #038048; stroke-width: 1.0;"/><text fill="#000000" font-family="sans-serif" font-size="11" lengthAdjust="spacingAndGlyphs" textLength="130" x="82" y="828.1377">REG_RightShift(val, bitpos)</text><text fill="#000000" font-family="sans-serif" font-size="11" lengthAdjust="spacingAndGlyphs" textLength="0" x="85" y="841.9736"/><line style="stroke: #A80036; stroke-width: 1.0; stroke-dasharray: 1.0,2.0;" x1="63" x2="114.5" y1="726.7852" y2="726.7852"/><text fill="#000000" font-family="sans-serif" font-size="11" lengthAdjust="spacingAndGlyphs" textLength="105" x="114.5" y="730.7861">Bit group manipulation</text><line style="stroke: #A80036; stroke-width: 1.0; stroke-dasharray: 1.0,2.0;" x1="219.5" x2="271" y1="726.7852" y2="726.7852"/><!--class inttype--><rect fill="#FEFECE" filter="url(#f1sbzpjlgl4f1t)" height="425.7578" id="inttype" style="stroke: #A80036; stroke-width: 1.5;" width="161" x="328.5" y="455"/><text fill="#000000" font-family="sans-serif" font-size="12" font-style="italic" lengthAdjust="spacingAndGlyphs" textLength="54" x="382" y="472.457">«typedef»</text><text fill="#000000" font-family="sans-serif" font-size="12" lengthAdjust="spacingAndGlyphs" textLength="35" x="391.5" y="487.5508">inttype</text><line style="stroke: #A80036; stroke-width: 1.5;" x1="329.5" x2="488.5" y1="495.1875" y2="495.1875"/><text fill="#000000" font-family="sans-serif" font-size="11" lengthAdjust="spacingAndGlyphs" textLength="92" x="334.5" y="510.6064">int8_t : signed char</text><text fill="#000000" font-family="sans-serif" font-size="11" lengthAdjust="spacingAndGlyphs" textLength="87" x="334.5" y="524.4424">int16_t : signed int</text><text fill="#000000" font-family="sans-serif" font-size="11" lengthAdjust="spacingAndGlyphs" textLength="110" x="334.5" y="538.2783">int32_t : signed long int</text><text fill="#000000" font-family="sans-serif" font-size="11" lengthAdjust="spacingAndGlyphs" textLength="133" x="334.5" y="552.1143">int64_t : signed long long int</text><text fill="#000000" font-family="sans-serif" font-size="11" lengthAdjust="spacingAndGlyphs" textLength="0" x="337.5" y="565.9502"/><text fill="#000000" font-family="sans-serif" font-size="11" lengthAdjust="spacingAndGlyphs" textLength="110" x="334.5" y="579.7861">uint8_t : unsigned char</text><text fill="#000000" font-family="sans-serif" font-size="11" lengthAdjust="spacingAndGlyphs" textLength="111" x="334.5" y="593.6221">uint16_t : unsigned int :</text><text fill="#000000" font-family="sans-serif" font-size="11" lengthAdjust="spacingAndGlyphs" textLength="128" x="334.5" y="607.458">uint32_t : unsigned long int</text><text fill="#000000" font-family="sans-serif" font-size="11" lengthAdjust="spacingAndGlyphs" textLength="0" x="337.5" y="621.2939"/><ellipse cx="339.5" cy="648.5469" fill="none" rx="3" ry="3" style="stroke: #038048; stroke-width: 1.0;"/><text fill="#000000" font-family="sans-serif" font-size="11" lengthAdjust="spacingAndGlyphs" textLength="74" x="348.5" y="652.9658">INT8_MAX  127</text><ellipse cx="339.5" cy="662.3828" fill="none" rx="3" ry="3" style="stroke: #038048; stroke-width: 1.0;"/><text fill="#000000" font-family="sans-serif" font-size="11" lengthAdjust="spacingAndGlyphs" textLength="72" x="348.5" y="666.8018">INT8_MIN  -128</text><text fill="#000000" font-family="sans-serif" font-size="11" lengthAdjust="spacingAndGlyphs" textLength="0" x="351.5" y="680.6377"/><ellipse cx="339.5" cy="690.0547" fill="none" rx="3" ry="3" style="stroke: #038048; stroke-width: 1.0;"/><text fill="#000000" font-family="sans-serif" font-size="11" lengthAdjust="spacingAndGlyphs" textLength="92" x="348.5" y="694.4736">INT16_MAX  32767</text><ellipse cx="339.5" cy="703.8906" fill="none" rx="3" ry="3" style="stroke: #038048; stroke-width: 1.0;"/><text fill="#000000" font-family="sans-serif" font-size="11" lengthAdjust="spacingAndGlyphs" textLength="90" x="348.5" y="708.3096">INT16_MIN  -32768</text><text fill="#000000" font-family="sans-serif" font-size="11" lengthAdjust="spacingAndGlyphs" textLength="0" x="351.5" y="722.1455"/><ellipse cx="339.5" cy="731.5625" fill="none" rx="3" ry="3" style="stroke: #038048; stroke-width: 1.0;"/><text fill="#000000" font-family="sans-serif" font-size="11" lengthAdjust="spacingAndGlyphs" textLength="122" x="348.5" y="735.9814">INT32_MAX  2147483647</text><ellipse cx="339.5" cy="745.3984" fill="none" rx="3" ry="3" style="stroke: #038048; stroke-width: 1.0;"/><text fill="#000000" font-family="sans-serif" font-size="11" lengthAdjust="spacingAndGlyphs" textLength="120" x="348.5" y="749.8174">INT32_MIN  -2147483648</text><text fill="#000000" font-family="sans-serif" font-size="11" lengthAdjust="spacingAndGlyphs" textLength="0" x="351.5" y="763.6533"/><ellipse cx="339.5" cy="773.0703" fill="none" rx="3" ry="3" style="stroke: #038048; stroke-width: 1.0;"/><text fill="#000000" font-family="sans-serif" font-size="11" lengthAdjust="spacingAndGlyphs" textLength="90" x="348.5" y="777.4893">UINT8_MAX   255u</text><ellipse cx="339.5" cy="786.9063" fill="none" rx="3" ry="3" style="stroke: #038048; stroke-width: 1.0;"/><text fill="#000000" font-family="sans-serif" font-size="11" lengthAdjust="spacingAndGlyphs" textLength="72" x="348.5" y="791.3252">UINT8_MIN   0u</text><text fill="#000000" font-family="sans-serif" font-size="11" lengthAdjust="spacingAndGlyphs" textLength="0" x="351.5" y="805.1611"/><ellipse cx="339.5" cy="814.5781" fill="none" rx="3" ry="3" style="stroke: #038048; stroke-width: 1.0;"/><text fill="#000000" font-family="sans-serif" font-size="11" lengthAdjust="spacingAndGlyphs" textLength="105" x="348.5" y="818.9971">UINT16_MAX  65535u</text><ellipse cx="339.5" cy="828.4141" fill="none" rx="3" ry="3" style="stroke: #038048; stroke-width: 1.0;"/><text fill="#000000" font-family="sans-serif" font-size="11" lengthAdjust="spacingAndGlyphs" textLength="75" x="348.5" y="832.833">UINT16_MIN  0u</text><text fill="#000000" font-family="sans-serif" font-size="11" lengthAdjust="spacingAndGlyphs" textLength="0" x="351.5" y="846.6689"/><ellipse cx="339.5" cy="856.0859" fill="none" rx="3" ry="3" style="stroke: #038048; stroke-width: 1.0;"/><text fill="#000000" font-family="sans-serif" font-size="11" lengthAdjust="spacingAndGlyphs" textLength="135" x="348.5" y="860.5049">UINT32_MAX  4294967295u</text><ellipse cx="339.5" cy="869.9219" fill="none" rx="3" ry="3" style="stroke: #038048; stroke-width: 1.0;"/><text fill="#000000" font-family="sans-serif" font-size="11" lengthAdjust="spacingAndGlyphs" textLength="75" x="348.5" y="874.3408">UINT32_MIN  0u</text><line style="stroke: #A80036; stroke-width: 1.0; stroke-dasharray: 1.0,2.0;" x1="329.5" x2="384" y1="634.6289" y2="634.6289"/><text fill="#000000" font-family="sans-serif" font-size="11" lengthAdjust="spacingAndGlyphs" textLength="50" x="384" y="638.6299">Type limits</text><line style="stroke: #A80036; stroke-width: 1.0; stroke-dasharray: 1.0,2.0;" x1="434" x2="488.5" y1="634.6289" y2="634.6289"/><!--class types--><rect fill="#FEFECE" filter="url(#f1sbzpjlgl4f1t)" height="291.3984" id="types" style="stroke: #A80036; stroke-width: 1.5;" width="185" x="520.5" y="104"/><ellipse cx="583.75" cy="124.0938" fill="#ADD1B2" rx="11" ry="11" style="stroke: #A80036; stroke-width: 1.0;"/><path d="M586.5156,119.9688 Q586.6719,119.75 586.8594,119.6406 Q587.0469,119.5313 587.2656,119.5313 Q587.6406,119.5313 587.875,119.7891 Q588.1094,120.0469 588.1094,120.6563 L588.1094,122.1094 Q588.1094,122.7188 587.875,122.9844 Q587.6406,123.25 587.2656,123.25 Q586.9219,123.25 586.7188,123.0469 Q586.5156,122.8594 586.4063,122.3438 Q586.3594,121.9844 586.1719,121.7969 Q585.8438,121.4219 585.2344,121.2031 Q584.625,120.9844 584,120.9844 Q583.2344,120.9844 582.6016,121.3125 Q581.9688,121.6406 581.4766,122.3906 Q580.9844,123.1406 580.9844,124.1719 L580.9844,125.2656 Q580.9844,126.5 581.875,127.3203 Q582.7656,128.1406 584.3594,128.1406 Q585.2969,128.1406 585.9531,127.8906 Q586.3438,127.7344 586.7656,127.2969 Q587.0313,127.0313 587.1797,126.9531 Q587.3281,126.875 587.5313,126.875 Q587.8594,126.875 588.1172,127.1328 Q588.375,127.3906 588.375,127.7344 Q588.375,128.0781 588.0313,128.4844 Q587.5313,129.0625 586.7344,129.3906 Q585.6563,129.8438 584.3594,129.8438 Q582.8438,129.8438 581.6406,129.2188 Q580.6563,128.7188 579.9688,127.6484 Q579.2813,126.5781 579.2813,125.2969 L579.2813,124.1406 Q579.2813,122.8125 579.8984,121.6641 Q580.5156,120.5156 581.6094,119.8984 Q582.7031,119.2813 583.9375,119.2813 Q584.6719,119.2813 585.3203,119.4453 Q585.9688,119.6094 586.5156,119.9688 Z "/><text fill="#000000" font-family="sans-serif" font-size="12" font-style="italic" lengthAdjust="spacingAndGlyphs" textLength="54" x="602.25" y="121.457">«typedef»</text><text fill="#000000" font-family="sans-serif" font-size="12" lengthAdjust="spacingAndGlyphs" textLength="29" x="614.75" y="136.5508">types</text><line style="stroke: #A80036; stroke-width: 1.5;" x1="521.5" x2="704.5" y1="144.1875" y2="144.1875"/><ellipse cx="531.5" cy="155.1875" fill="none" rx="3" ry="3" style="stroke: #038048; stroke-width: 1.0;"/><text fill="#000000" font-family="sans-serif" font-size="11" lengthAdjust="spacingAndGlyphs" textLength="76" x="540.5" y="159.6064">bool_et : bool_e</text><ellipse cx="531.5" cy="169.0234" fill="none" rx="3" ry="3" style="stroke: #038048; stroke-width: 1.0;"/><text fill="#000000" font-family="sans-serif" font-size="11" lengthAdjust="spacingAndGlyphs" textLength="84" x="540.5" y="173.4424">state_et : state_e</text><ellipse cx="531.5" cy="182.8594" fill="none" rx="3" ry="3" style="stroke: #038048; stroke-width: 1.0;"/><text fill="#000000" font-family="sans-serif" font-size="11" lengthAdjust="spacingAndGlyphs" textLength="97" x="540.5" y="187.2783">status_et : Status_e</text><line style="stroke: #A80036; stroke-width: 1.5;" x1="521.5" x2="704.5" y1="193.6953" y2="193.6953"/><ellipse cx="531.5" cy="204.6953" fill="#84BE84" rx="3" ry="3" style="stroke: #038048; stroke-width: 1.0;"/><text fill="#000000" font-family="sans-serif" font-size="11" lengthAdjust="spacingAndGlyphs" textLength="120" x="540.5" y="209.1143">IsAlpha(uint8_t) : bool_et</text><ellipse cx="531.5" cy="218.5313" fill="#84BE84" rx="3" ry="3" style="stroke: #038048; stroke-width: 1.0;"/><text fill="#000000" font-family="sans-serif" font-size="11" lengthAdjust="spacingAndGlyphs" textLength="112" x="540.5" y="222.9502">IsDigit(uint8_t) : bool_et</text><ellipse cx="531.5" cy="232.3672" fill="#84BE84" rx="3" ry="3" style="stroke: #038048; stroke-width: 1.0;"/><text fill="#000000" font-family="sans-serif" font-size="11" lengthAdjust="spacingAndGlyphs" textLength="159" x="540.5" y="236.7861">IsAlphaNumeric(uint8_t) : bool_et</text><ellipse cx="531.5" cy="246.2031" fill="#84BE84" rx="3" ry="3" style="stroke: #038048; stroke-width: 1.0;"/><text fill="#000000" font-family="sans-serif" font-size="11" lengthAdjust="spacingAndGlyphs" textLength="126" x="540.5" y="250.6221">IsControl(uint8_t) : bool_et</text><ellipse cx="531.5" cy="260.0391" fill="#84BE84" rx="3" ry="3" style="stroke: #038048; stroke-width: 1.0;"/><text fill="#000000" font-family="sans-serif" font-size="11" lengthAdjust="spacingAndGlyphs" textLength="116" x="540.5" y="264.458">IsAscii(uint8_t) : bool_et</text><ellipse cx="531.5" cy="273.875" fill="#84BE84" rx="3" ry="3" style="stroke: #038048; stroke-width: 1.0;"/><text fill="#000000" font-family="sans-serif" font-size="11" lengthAdjust="spacingAndGlyphs" textLength="122" x="540.5" y="278.2939">IsGraph(uint8_t) : bool_et</text><ellipse cx="531.5" cy="287.7109" fill="#84BE84" rx="3" ry="3" style="stroke: #038048; stroke-width: 1.0;"/><text fill="#000000" font-family="sans-serif" font-size="11" lengthAdjust="spacingAndGlyphs" textLength="124" x="540.5" y="292.1299">IsLower(uint8_t) : bool_et</text><ellipse cx="531.5" cy="301.5469" fill="#84BE84" rx="3" ry="3" style="stroke: #038048; stroke-width: 1.0;"/><text fill="#000000" font-family="sans-serif" font-size="11" lengthAdjust="spacingAndGlyphs" textLength="119" x="540.5" y="305.9658">IsPunct(uint8_t) : bool_et</text><ellipse cx="531.5" cy="315.3828" fill="#84BE84" rx="3" ry="3" style="stroke: #038048; stroke-width: 1.0;"/><text fill="#000000" font-family="sans-serif" font-size="11" lengthAdjust="spacingAndGlyphs" textLength="131" x="540.5" y="319.8018">IsHexDigit(uint8_t) : bool_et</text><ellipse cx="531.5" cy="329.2188" fill="#84BE84" rx="3" ry="3" style="stroke: #038048; stroke-width: 1.0;"/><text fill="#000000" font-family="sans-serif" font-size="11" lengthAdjust="spacingAndGlyphs" textLength="133" x="540.5" y="333.6377">IsPrintable(uint8_t) : bool_et</text><ellipse cx="531.5" cy="343.0547" fill="#84BE84" rx="3" ry="3" style="stroke: #038048; stroke-width: 1.0;"/><text fill="#000000" font-family="sans-serif" font-size="11" lengthAdjust="spacingAndGlyphs" textLength="123" x="540.5" y="347.4736">IsSpace(uint8_t) : bool_et</text><ellipse cx="531.5" cy="356.8906" fill="#84BE84" rx="3" ry="3" style="stroke: #038048; stroke-width: 1.0;"/><text fill="#000000" font-family="sans-serif" font-size="11" lengthAdjust="spacingAndGlyphs" textLength="121" x="540.5" y="361.3096">IsUpper(uint8_t) : bool_et</text><ellipse cx="531.5" cy="370.7266" fill="#84BE84" rx="3" ry="3" style="stroke: #038048; stroke-width: 1.0;"/><text fill="#000000" font-family="sans-serif" font-size="11" lengthAdjust="spacingAndGlyphs" textLength="122" x="540.5" y="375.1455">ToUpper(uint8_t) : uint8_t</text><ellipse cx="531.5" cy="384.5625" fill="#84BE84" rx="3" ry="3" style="stroke: #038048; stroke-width: 1.0;"/><text fill="#000000" font-family="sans-serif" font-size="11" lengthAdjust="spacingAndGlyphs" textLength="125" x="540.5" y="388.9814">ToLower(uint8_t) : uint8_t</text><!--class bool_e--><rect fill="#FEFECE" filter="url(#f1sbzpjlgl4f1t)" height="67.6719" id="bool_e" style="stroke: #A80036; stroke-width: 1.5;" width="70" x="525" y="634"/><ellipse cx="540" cy="650" fill="#EB937F" rx="11" ry="11" style="stroke: #A80036; stroke-width: 1.0;"/><path d="M538.8594,650.7969 L538.8594,653.2969 L543.1875,653.2969 L543.1875,652.375 Q543.1875,651.7656 543.4297,651.5 Q543.6719,651.2344 544.0469,651.2344 Q544.4219,651.2344 544.6563,651.5 Q544.8906,651.7656 544.8906,652.375 L544.8906,655 L536.8906,655 Q536.2656,655 536.0078,654.7656 Q535.75,654.5313 535.75,654.1406 Q535.75,653.7656 536.0156,653.5313 Q536.2813,653.2969 536.8906,653.2969 L537.1563,653.2969 L537.1563,646.6406 L536.8906,646.6406 Q536.2656,646.6406 536.0078,646.4063 Q535.75,646.1719 535.75,645.7813 Q535.75,645.4063 536.0078,645.1719 Q536.2656,644.9375 536.8906,644.9375 L544.5156,644.9375 L544.5156,647.5313 Q544.5156,648.1406 544.2891,648.3984 Q544.0625,648.6563 543.6719,648.6563 Q543.2969,648.6563 543.0625,648.3984 Q542.8281,648.1406 542.8281,647.5313 L542.8281,646.6406 L538.8594,646.6406 L538.8594,649.0938 L540.3438,649.0938 Q540.3438,648.4375 540.4688,648.25 Q540.7344,647.8438 541.2031,647.8438 Q541.5781,647.8438 541.8125,648.1016 Q542.0469,648.3594 542.0469,648.9688 L542.0469,650.9375 Q542.0469,651.4844 541.9219,651.6719 Q541.6563,652.0625 541.2031,652.0625 Q540.7344,652.0625 540.4688,651.6563 Q540.3438,651.4688 540.3438,650.7969 L538.8594,650.7969 Z "/><text fill="#000000" font-family="sans-serif" font-size="12" lengthAdjust="spacingAndGlyphs" textLength="38" x="554" y="654.9102">bool_e</text><line style="stroke: #A80036; stroke-width: 1.5;" x1="526" x2="594" y1="666" y2="666"/><text fill="#000000" font-family="sans-serif" font-size="11" lengthAdjust="spacingAndGlyphs" textLength="33" x="531" y="681.4189">FALSE</text><text fill="#000000" font-family="sans-serif" font-size="11" lengthAdjust="spacingAndGlyphs" textLength="26" x="531" y="695.2549">TRUE</text><!--class state_e--><rect fill="#FEFECE" filter="url(#f1sbzpjlgl4f1t)" height="67.6719" id="state_e" style="stroke: #A80036; stroke-width: 1.5;" width="73" x="630.5" y="634"/><ellipse cx="645.5" cy="650" fill="#EB937F" rx="11" ry="11" style="stroke: #A80036; stroke-width: 1.0;"/><path d="M644.3594,650.7969 L644.3594,653.2969 L648.6875,653.2969 L648.6875,652.375 Q648.6875,651.7656 648.9297,651.5 Q649.1719,651.2344 649.5469,651.2344 Q649.9219,651.2344 650.1563,651.5 Q650.3906,651.7656 650.3906,652.375 L650.3906,655 L642.3906,655 Q641.7656,655 641.5078,654.7656 Q641.25,654.5313 641.25,654.1406 Q641.25,653.7656 641.5156,653.5313 Q641.7813,653.2969 642.3906,653.2969 L642.6563,653.2969 L642.6563,646.6406 L642.3906,646.6406 Q641.7656,646.6406 641.5078,646.4063 Q641.25,646.1719 641.25,645.7813 Q641.25,645.4063 641.5078,645.1719 Q641.7656,644.9375 642.3906,644.9375 L650.0156,644.9375 L650.0156,647.5313 Q650.0156,648.1406 649.7891,648.3984 Q649.5625,648.6563 649.1719,648.6563 Q648.7969,648.6563 648.5625,648.3984 Q648.3281,648.1406 648.3281,647.5313 L648.3281,646.6406 L644.3594,646.6406 L644.3594,649.0938 L645.8438,649.0938 Q645.8438,648.4375 645.9688,648.25 Q646.2344,647.8438 646.7031,647.8438 Q647.0781,647.8438 647.3125,648.1016 Q647.5469,648.3594 647.5469,648.9688 L647.5469,650.9375 Q647.5469,651.4844 647.4219,651.6719 Q647.1563,652.0625 646.7031,652.0625 Q646.2344,652.0625 645.9688,651.6563 Q645.8438,651.4688 645.8438,650.7969 L644.3594,650.7969 Z "/><text fill="#000000" font-family="sans-serif" font-size="12" lengthAdjust="spacingAndGlyphs" textLength="41" x="659.5" y="654.9102">state_e</text><line style="stroke: #A80036; stroke-width: 1.5;" x1="631.5" x2="702.5" y1="666" y2="666"/><text fill="#000000" font-family="sans-serif" font-size="11" lengthAdjust="spacingAndGlyphs" textLength="24" x="636.5" y="681.4189">LOW</text><text fill="#000000" font-family="sans-serif" font-size="11" lengthAdjust="spacingAndGlyphs" textLength="24" x="636.5" y="695.2549">HIGH</text><!--class status_e--><rect fill="#FEFECE" filter="url(#f1sbzpjlgl4f1t)" height="95.3438" id="status_e" style="stroke: #A80036; stroke-width: 1.5;" width="80" x="739" y="620.5"/><ellipse cx="754" cy="636.5" fill="#EB937F" rx="11" ry="11" style="stroke: #A80036; stroke-width: 1.0;"/><path d="M752.8594,637.2969 L752.8594,639.7969 L757.1875,639.7969 L757.1875,638.875 Q757.1875,638.2656 757.4297,638 Q757.6719,637.7344 758.0469,637.7344 Q758.4219,637.7344 758.6563,638 Q758.8906,638.2656 758.8906,638.875 L758.8906,641.5 L750.8906,641.5 Q750.2656,641.5 750.0078,641.2656 Q749.75,641.0313 749.75,640.6406 Q749.75,640.2656 750.0156,640.0313 Q750.2813,639.7969 750.8906,639.7969 L751.1563,639.7969 L751.1563,633.1406 L750.8906,633.1406 Q750.2656,633.1406 750.0078,632.9063 Q749.75,632.6719 749.75,632.2813 Q749.75,631.9063 750.0078,631.6719 Q750.2656,631.4375 750.8906,631.4375 L758.5156,631.4375 L758.5156,634.0313 Q758.5156,634.6406 758.2891,634.8984 Q758.0625,635.1563 757.6719,635.1563 Q757.2969,635.1563 757.0625,634.8984 Q756.8281,634.6406 756.8281,634.0313 L756.8281,633.1406 L752.8594,633.1406 L752.8594,635.5938 L754.3438,635.5938 Q754.3438,634.9375 754.4688,634.75 Q754.7344,634.3438 755.2031,634.3438 Q755.5781,634.3438 755.8125,634.6016 Q756.0469,634.8594 756.0469,635.4688 L756.0469,637.4375 Q756.0469,637.9844 755.9219,638.1719 Q755.6563,638.5625 755.2031,638.5625 Q754.7344,638.5625 754.4688,638.1563 Q754.3438,637.9688 754.3438,637.2969 L752.8594,637.2969 Z "/><text fill="#000000" font-family="sans-serif" font-size="12" lengthAdjust="spacingAndGlyphs" textLength="48" x="768" y="641.4102">status_e</text><line style="stroke: #A80036; stroke-width: 1.5;" x1="740" x2="818" y1="652.5" y2="652.5"/><text fill="#000000" font-family="sans-serif" font-size="11" lengthAdjust="spacingAndGlyphs" textLength="38" x="745" y="667.9189">FAILED,</text><text fill="#000000" font-family="sans-serif" font-size="11" lengthAdjust="spacingAndGlyphs" textLength="51" x="745" y="681.7549">SUCCESS,</text><text fill="#000000" font-family="sans-serif" font-size="11" lengthAdjust="spacingAndGlyphs" textLength="32" x="745" y="695.5908">BUSY,</text><text fill="#000000" font-family="sans-serif" font-size="11" lengthAdjust="spacingAndGlyphs" textLength="43" x="745" y="709.4268">TIMEOUT</text><!--reverse link types to inttype--><path d="M535.515,399.822 C526.141,418.351 516.783,437.076 508,455 C501.923,467.402 495.714,480.25 489.515,493.205 " fill="none" id="types&lt;-inttype" style="stroke: #A80036; stroke-width: 1.0;"/><polygon fill="#A80036" points="537.898,395.115,530.2635,401.337,535.6391,399.5756,537.4005,404.9513,537.898,395.115" style="stroke: #A80036; stroke-width: 1.0;"/><!--reverse link types to bool_e--><path d="M593.97,400.045 C583.196,484.714 570.628,583.481 564.222,633.818 " fill="none" id="types&lt;-bool_e" style="stroke: #A80036; stroke-width: 1.0;"/><polygon fill="#A80036" points="594.612,395.003,589.5075,403.4258,593.9806,399.963,597.4434,404.4361,594.612,395.003" style="stroke: #A80036; stroke-width: 1.0;"/><!--reverse link types to state_e--><path d="M632.389,400.045 C643.366,484.714 656.172,583.481 662.698,633.818 " fill="none" id="types&lt;-state_e" style="stroke: #A80036; stroke-width: 1.0;"/><polygon fill="#A80036" points="631.735,395.003,628.9257,404.4427,632.378,399.9615,636.8592,403.4138,631.735,395.003" style="stroke: #A80036; stroke-width: 1.0;"/><!--reverse link types to status_e--><path d="M696.534,399.663 C705.395,418.028 713.788,436.757 721,455 C742.814,510.181 759.527,576.545 769.288,620.147 " fill="none" id="types&lt;-status_e" style="stroke: #A80036; stroke-width: 1.0;"/><polygon fill="#A80036" points="694.272,395.003,694.6023,404.8463,696.4548,399.5014,701.7997,401.3539,694.272,395.003" style="stroke: #A80036; stroke-width: 1.0;"/><!--link utils to regctrl--><!--
@startuml embclib

package embclib
{
  package stdctypes
  {


class inttype << typedef >>
{
  int8_t : signed char
  int16_t : signed int
  int32_t : signed long int
  int64_t : signed long long int

  uint8_t : unsigned char
  uint16_t : unsigned int : 
  uint32_t : unsigned long int

  .. Type limits ..
  + INT8_MAX  127
  + INT8_MIN  -128

  + INT16_MAX  32767
  + INT16_MIN  -32768

  + INT32_MAX  2147483647
  + INT32_MIN  -2147483648

  + UINT8_MAX   255u
  + UINT8_MIN   0u

  + UINT16_MAX  65535u
  + UINT16_MIN  0u

  + UINT32_MAX  4294967295u
  + UINT32_MIN  0u
}

hide inttype circle
hide inttype Attribute


class types << typedef >>
{
  + bool_et : bool_e
  + state_et : state_e
  + status_et : Status_e

  + IsAlpha(uint8_t) : bool_et
  + IsDigit(uint8_t) : bool_et
  + IsAlphaNumeric(uint8_t) : bool_et
  + IsControl(uint8_t) : bool_et
  + IsAscii(uint8_t) : bool_et
  + IsGraph(uint8_t) : bool_et
  + IsLower(uint8_t) : bool_et
  + IsPunct(uint8_t) : bool_et
  + IsHexDigit(uint8_t) : bool_et
  + IsPrintable(uint8_t) : bool_et
  + IsSpace(uint8_t) : bool_et
  + IsUpper(uint8_t) : bool_et
  + ToUpper(uint8_t) : uint8_t
  + ToLower(uint8_t) : uint8_t
}

enum bool_e
{
    FALSE
    TRUE
}

enum state_e
{
    LOW
    HIGH
}

enum status_e
{
    FAILED,
    SUCCESS,
    BUSY,
    TIMEOUT
}

hide enum method

inttype -up-> types
bool_e -up-> types
state_e -up-> types
status_e -up-> types


  }


class utils
{
  .. Macro functions ..
  + Abs(val)
  + Max(val1, val2) 
  + Min(val1, val2)
  + Pow2(val)
  + Swap(val1, val2)
  + Limit(val, min, max)
  - -
  + UTILS_Rand(min : int16_t, max : int16_t) : int16_t
  + UTILS_RandSeed(seed_i16 : uint16_t) : void
  + UTILS_Scale(in_value : int16_t, 
                in_min : int16_t, in_max : int16_t, 
                out_min : int16_t, out_max : int16_t) : int16_t

}


class regctrl
{
    .. Bit mask ..
  + BIT_Mask(bitpos)
  + BIT_MaskFill(bitpos)
  .. Bit manipulation ..
  + BIT_Set(reg, bitpos)
  + BIT_Clear(reg, bitpos)
  + BIT_Read(reg, bitpos)
  + BIT_Toggle(reg, bitpos)
  .. Bit check ..
  + BIT_IsSet(reg, bitpos)
  + BIT_IsClear(reg, bitpos)
  + BIT_IsAllSet(reg, bitmask)
  + BIT_IsAnySet(reg, bitmask)
  .. Bit group manipulation ..
  + REG_Clear(reg)
  + REG_Write(reg, val)
  + REG_Read(reg)
  + REG_Modify(reg, setmask, clearmask)
  + REG_Cut(reg, bitpos, len)
  + REG_Shift(val, bitpos)
  + REG_RightShift(val, bitpos)

}



  utils -[hidden]- regctrl
}

@enduml

PlantUML version 1.2019.09(Mon Aug 26 21:49:51 IST 2019)
(GPL source distribution)
Java Runtime: Java(TM) SE Runtime Environment
JVM: Java HotSpot(TM) 64-Bit Server VM
Java Version: 1.8.0_211-b12
Operating System: Windows 8.1
OS Version: 6.3
Default Encoding: Cp1252
Language: en
Country: GB
--></g></svg>